<svg 
 xmlns="http://www.w3.org/2000/svg"
 xmlns:xlink="http://www.w3.org/1999/xlink"
 width="6px" height="10px">
<path fill-rule="evenodd"  fill="rgb(192, 48, 28)"
 d="M-0.000,9.168 C-0.000,9.258 0.041,9.338 0.103,9.399 L0.619,9.900 C0.680,9.960 0.773,10.000 0.856,10.000 C0.938,10.000 1.031,9.960 1.093,9.900 L5.897,5.230 C5.959,5.170 6.000,5.080 6.000,5.000 C6.000,4.920 5.959,4.830 5.897,4.769 L1.093,0.100 C1.031,0.040 0.938,-0.000 0.856,-0.000 C0.773,-0.000 0.680,0.040 0.619,0.100 L0.103,0.601 C0.041,0.661 -0.000,0.751 -0.000,0.832 C-0.000,0.912 0.041,1.002 0.103,1.062 L4.155,5.000 L0.103,8.937 C0.041,8.998 -0.000,9.088 -0.000,9.168 Z"/>
</svg>