<svg 
 xmlns="http://www.w3.org/2000/svg"
 xmlns:xlink="http://www.w3.org/1999/xlink"
 width="12px" height="17px">
<path fill-rule="evenodd"  fill="rgb(85, 85, 85)"
 d="M9.000,5.666 C9.000,7.227 7.652,8.500 6.000,8.500 C4.348,8.500 3.000,7.227 3.000,5.666 C3.000,4.106 4.348,2.833 6.000,2.833 C7.652,2.833 9.000,4.106 9.000,5.666 ZM12.000,5.666 C12.000,2.534 9.316,-0.000 6.000,-0.000 C2.684,-0.000 -0.000,2.534 -0.000,5.666 C-0.000,6.342 0.082,7.038 0.387,7.648 L4.664,16.214 C4.898,16.701 5.437,17.000 6.000,17.000 C6.562,17.000 7.102,16.701 7.348,16.214 L11.613,7.648 C11.918,7.038 12.000,6.342 12.000,5.666 Z"/>
</svg>